<svg xmlns="http://www.w3.org/2000/svg" viewBox="0 0 16 16" width="16" version="1.1" height="16">
<path d="M12.5,6.9c-0.3,0-0.7,0.1-1,0.2l-0.7-1.3L11,5.5c0,0,0,0,0,0l0,0l0.6-1.3h0.5c0.2,0,0.4-0.2,0.4-0.4s-0.2-0.4-0.4-0.4h-2
	c-0.2,0-0.4,0.2-0.4,0.4s0.2,0.4,0.4,0.4h0.7l-0.4,0.7H4.9l0.2-0.9h0.5V3.3H3.9v0.8h0.4L3.6,6.9c-0.1,0-0.1,0-0.2,0
	c-1.8,0-3.3,1.5-3.3,3.2c0,1.8,1.5,3.2,3.3,3.2s3.3-1.5,3.3-3.2c0-1.5-1-2.7-2.3-3.1l0.3-1.2L8,10.1c0.1,0.1,0.2,0.1,0.3,0.1
	c0,0,0,0,0,0c0.1,0,0.2-0.1,0.3-0.2l1.8-3.5l0.4,0.8c-1,0.6-1.6,1.6-1.6,2.8c0,1.8,1.5,3.2,3.3,3.2c1.8,0,3.3-1.5,3.3-3.2
	C15.8,8.3,14.3,6.9,12.5,6.9z M5.9,10.1c0,1.4-1.1,2.5-2.5,2.5s-2.5-1.1-2.5-2.5c0-1.4,1.1-2.5,2.5-2.5c0,0,0,0,0,0l-0.7,2.6
	l0.7,0.2l0.7-2.7C5.2,8.1,5.9,9,5.9,10.1z M8.2,9.2L5.5,5.7h4.6L8.2,9.2z M12.5,12.6c-1.4,0-2.5-1.1-2.5-2.5c0-0.9,0.5-1.7,1.2-2.1
	l1.2,2.5l0.7-0.3l-1.2-2.5c0.2-0.1,0.4-0.1,0.6-0.1c1.4,0,2.5,1.1,2.5,2.5C15,11.5,13.9,12.6,12.5,12.6z"/>
</svg>
