<svg xmlns="http://www.w3.org/2000/svg" viewBox="0 0 16 16" width="16" version="1.1" height="16"><g>
	<circle cx="12.5" cy="10.9" r="1.7"/>
	<circle cx="3.7" cy="11.1" r="1.7"/>
	<path d="M0.1,3.7v6.2c0,0.6,0.5,1.2,1.2,1.2h0.5c0-1.1,0.9-2,2-2c1.1,0,2,0.9,2,2h4.8c0,0,0-0.1,0-0.1c0-1.1,0.9-2,2-2
		c1.1,0,2,0.9,2,2c0,0,0,0.1,0,0.1h0.8c0.4,0,0.7-0.3,0.7-0.7V7.1c0-0.4-0.3-0.7-0.7-0.7l-0.9-0.3l-0.5-2.4c0-0.6-0.5-1.2-1.2-1.2
		H1.3C0.6,2.5,0.1,3,0.1,3.7z M10.3,3.9c0-0.4,0.3-0.7,0.7-0.7h1.4c0.4,0,0.7,0.3,0.7,0.7l0.3,1.4c0,0.4-0.3,0.7-0.7,0.7h-1.7
		c-0.4,0-0.7-0.3-0.7-0.7V3.9z"/>
</g>
</svg>
